<svg width="189" height="31" viewBox="0 0 189 31" fill="none" xmlns="http://www.w3.org/2000/svg">
<path d="M41.3203 8.87988H47.3683C50.9683 8.87988 52.7683 10.2479 52.7683 12.9839C52.7683 14.3999 52.0963 15.4319 50.7523 16.1279C52.8163 16.6799 53.8483 17.8559 53.8483 19.7039C53.8483 22.6799 51.6883 23.9999 48.4483 23.9999H41.3203V8.87988ZM48.4483 17.3039H43.4803V22.0559H48.4483C50.6083 22.0559 51.6883 21.2639 51.6883 19.7039C51.6883 18.0959 50.6083 17.3039 48.4483 17.3039ZM47.3683 10.8239H43.4803V15.3599H47.3683C49.5283 15.3599 50.6083 14.5679 50.6083 12.9839C50.6083 11.5439 49.5283 10.8239 47.3683 10.8239Z" fill="white"/>
<path d="M58.5272 18.1679V23.9999H56.3672V8.87988H63.5192C66.7592 8.87988 68.8952 10.2479 68.8952 13.4159C68.8952 16.4879 66.9032 18.0479 63.9032 18.1679L68.9432 23.9999H66.2072L61.1672 18.1679H58.5272ZM63.5192 10.8239H58.5272V16.2239H63.5192C65.6792 16.2239 66.7592 15.2879 66.7592 13.4159C66.7592 11.4719 65.6072 10.8239 63.5192 10.8239Z" fill="white"/>
<path d="M83.2026 8.87988H85.3626V16.2239C85.3626 18.6959 84.6906 20.6159 83.3226 21.9839C81.9546 23.3279 80.2746 23.9999 78.2346 23.9999C76.1946 23.9999 74.5146 23.3279 73.1466 21.9839C71.7786 20.6159 71.1066 18.6959 71.1066 16.2239V8.87988H73.2666V16.2239C73.2666 20.0879 75.3546 22.0559 78.2346 22.0559C81.1146 22.0559 83.2026 20.0879 83.2026 16.2239V8.87988Z" fill="white"/>
<path d="M94.3946 10.8239V23.9999H92.2346V10.8239H87.1706V8.87988H99.4826V10.8239H94.3946Z" fill="white"/>
<path d="M101.414 8.87988H113.294V10.8239H103.574V15.3599H111.35V17.3039H103.574V22.0559H113.294V23.9999H101.414V8.87988Z" fill="white"/>
<path d="M115.945 8.87988H127.849V10.8239H118.105V15.3599H125.881V17.3039H118.105V23.9999H115.945V8.87988Z" fill="white"/>
<path d="M129.065 16.4399C129.065 13.9679 129.737 12.0959 131.081 10.8239C132.425 9.52788 134.129 8.87988 136.193 8.87988C138.257 8.87988 139.961 9.52788 141.305 10.7999C142.649 12.0719 143.321 13.9679 143.321 16.4399C143.321 18.9119 142.649 20.8079 141.305 22.0799C139.961 23.3519 138.257 23.9999 136.193 23.9999C134.129 23.9999 132.425 23.3519 131.081 22.0799C129.737 20.8079 129.065 18.9119 129.065 16.4399ZM141.161 16.4399C141.161 12.6239 139.097 10.8239 136.193 10.8239C133.241 10.8239 131.225 12.6239 131.225 16.4399C131.225 20.3039 133.241 22.0559 136.193 22.0559C139.145 22.0559 141.161 20.3039 141.161 16.4399Z" fill="white"/>
<path d="M147.871 18.1679V23.9999H145.711V8.87988H152.863C156.103 8.87988 158.239 10.2479 158.239 13.4159C158.239 16.4879 156.247 18.0479 153.247 18.1679L158.287 23.9999H155.551L150.511 18.1679H147.871ZM152.863 10.8239H147.871V16.2239H152.863C155.023 16.2239 156.103 15.2879 156.103 13.4159C156.103 11.4719 154.951 10.8239 152.863 10.8239Z" fill="white"/>
<path d="M171.85 19.3199L173.746 20.2079C172.57 22.6799 170.242 23.9999 167.458 23.9999C165.394 23.9999 163.69 23.3519 162.346 22.0799C161.002 20.8079 160.33 18.9119 160.33 16.4399C160.33 13.9679 161.002 12.0959 162.346 10.8239C163.69 9.52788 165.394 8.87988 167.458 8.87988C170.314 8.87988 172.666 10.1279 173.818 12.6239L171.898 13.5359C171.106 11.7359 169.642 10.8239 167.458 10.8239C164.506 10.8239 162.49 12.6239 162.49 16.4399C162.49 20.3039 164.506 22.0559 167.458 22.0559C169.546 22.0559 171.01 21.1439 171.85 19.3199Z" fill="white"/>
<path d="M176.227 8.87988H188.107V10.8239H178.387V15.3599H186.163V17.3039H178.387V22.0559H188.107V23.9999H176.227V8.87988Z" fill="white"/>
<path d="M29.4914 0C27.4255 3.10352 25.0504 4.62886 20.6164 4.56545C20.1001 3.85376 19.4104 3.27184 18.6063 2.86951C17.8023 2.46717 16.9079 2.2564 15.9997 2.25525C15.0903 2.25532 14.1945 2.46557 13.3891 2.86795C12.5838 3.27033 11.893 3.85283 11.376 4.56545C6.94901 4.62886 4.5704 3.10211 2.508 0C0.379542 3.20075 3.98646 7.81341 10.3922 7.91909C10.4355 8.63421 10.6291 9.33378 10.9614 9.97636C1.16164 11.3502 -0.807306 24.807 0.259381 30.1545H5.88092C5.88092 26.7727 7.00523 22.2636 10.3782 20.0091L9.25384 30.1545C9.25384 31.2818 13.7511 31.2818 13.7511 30.1545C13.7511 27.9 14.8754 25.6455 15.9997 25.6455C17.124 25.6455 18.2483 27.9 18.2483 30.1545C18.2483 31.2818 22.7455 31.2818 22.7455 30.1545L21.6212 20.0091C24.9942 22.2636 26.1185 26.7727 26.1185 30.1545H31.74C32.8081 24.807 30.8406 11.3432 21.031 9.97636C21.3657 9.33427 21.5617 8.63468 21.6072 7.91909C28.0087 7.81341 31.6205 3.20145 29.4914 0ZM11.5025 6.18591C12.4511 7.29205 13.4138 8.39114 14.8754 9.01818C14.8754 9.01818 13.2662 10.1243 12.6268 9.63114C11.917 9.07454 11.5025 6.18591 11.5025 6.18591ZM20.4969 6.18591C20.4969 6.18591 20.0823 9.07454 19.3726 9.63114C18.7332 10.1243 17.124 9.01818 17.124 9.01818C18.5856 8.39114 19.5483 7.29205 20.4969 6.18591Z" fill="white"/>
</svg>
